<svg width="187" height="48" viewBox="0 0 187 48" fill="none" xmlns="http://www.w3.org/2000/svg">
<path d="M40.1421 40.386H23.7576L40.1421 23.9998V40.386Z" fill="url(#paint0_linear_2_43)"/>
<path opacity="0.14" d="M40.1421 40.386L31.9499 32.1101L33.4245 30.786L40.1421 40.386Z" fill="url(#paint1_linear_2_43)"/>
<path d="M40.1422 40.386H7.53693V7.4481L40.1422 40.386Z" fill="url(#paint2_linear_2_43)"/>
<path d="M186.667 17.8709V23.0729C186.181 23.0026 185.765 22.9323 185.418 22.9323C183.267 22.9323 181.602 23.5649 180.423 24.8303C179.243 26.0956 178.619 27.853 178.619 30.1728V41.5609H173.138V17.8709H178.341V21.5263C179.868 19.1363 182.643 17.8709 186.667 17.8709Z" fill="white"/>
<path d="M169.391 31.4382H151.492C151.838 33.1253 152.602 34.4609 153.92 35.5154C155.238 36.4995 156.903 36.9916 158.846 36.9916C161.343 36.9916 163.425 36.1481 165.02 34.4609L168.073 37.554C167.032 38.8193 165.575 39.9441 163.98 40.5767C162.384 41.2094 160.65 41.5609 158.707 41.5609C156.209 41.5609 153.989 41.0688 152.116 40.0144C150.243 39.0302 148.716 37.6243 147.676 35.7966C146.635 33.9689 146.149 31.9303 146.149 29.6808C146.149 27.4313 146.635 25.3927 147.676 23.6352C148.716 21.8075 150.104 20.4016 151.908 19.4174C153.712 18.4333 155.724 17.8709 157.944 17.8709C160.164 17.8709 162.176 18.363 163.91 19.3471C165.645 20.3313 167.032 21.7372 168.004 23.5649C168.975 25.3927 169.461 27.4313 169.461 29.8214C169.461 30.1728 169.461 30.7352 169.391 31.4382ZM153.642 23.7758C152.463 24.8303 151.769 26.1659 151.492 27.853H164.396C164.188 26.1659 163.494 24.8303 162.315 23.7758C161.135 22.7214 159.678 22.2293 157.944 22.2293C156.209 22.2293 154.822 22.7214 153.642 23.7758Z" fill="white"/>
<path d="M146.427 17.8709L136.297 41.5609H131.024L120.895 17.8709H126.445L133.8 35.3045L141.362 17.8709H146.427Z" fill="white"/>
<path d="M121.381 31.4382H103.482C103.828 33.1253 104.592 34.4609 105.91 35.5154C107.228 36.4995 108.893 36.9916 110.836 36.9916C113.333 36.9916 115.415 36.1481 117.01 34.4609L120.063 37.554C119.022 38.8193 117.565 39.9441 115.97 40.5767C114.374 41.2094 112.64 41.5609 110.697 41.5609C108.199 41.5609 105.979 41.0688 104.106 40.0144C102.233 39.0302 100.706 37.6243 99.6657 35.7966C98.625 33.9689 98.1394 31.9303 98.1394 29.6808C98.1394 27.4313 98.625 25.3927 99.6657 23.6352C100.706 21.8075 102.094 20.4016 103.898 19.4174C105.702 18.4333 107.714 17.8709 109.934 17.8709C112.154 17.8709 114.166 18.363 115.9 19.3471C117.635 20.3313 119.022 21.7372 119.994 23.5649C120.965 25.3927 121.451 27.4313 121.451 29.8214C121.451 30.1728 121.451 30.7352 121.381 31.4382ZM105.563 23.7758C104.383 24.8303 103.69 26.1659 103.412 27.853H116.317C116.109 26.1659 115.415 24.8303 114.235 23.7758C113.056 22.7214 111.599 22.2293 109.864 22.2293C108.199 22.2293 106.742 22.7214 105.563 23.7758Z" fill="white"/>
<path d="M87.9402 9.15495H93.2824V41.5617H87.9402V9.15495Z" fill="white"/>
<path d="M76.8396 17.8709H83.5L68.9997 32.6332L65.6695 29.259L76.8396 17.8709Z" fill="white"/>
<path d="M65.6695 29.1899L68.9304 25.886L84.4019 41.5621H77.8109L65.6695 29.2602V29.1899Z" fill="white"/>
<path d="M66.4331 9.15494H61.0909V41.5617H66.4331V9.15494Z" fill="white"/>
<defs>
<linearGradient id="paint0_linear_2_43" x1="31.9499" y1="23.9238" x2="31.9499" y2="40.419" gradientUnits="userSpaceOnUse">
<stop offset="2.71717e-07" stop-color="#FF4681"/>
<stop offset="1" stop-color="#9B44F6"/>
</linearGradient>
<linearGradient id="paint1_linear_2_43" x1="35.9016" y1="31.8663" x2="33.5622" y2="37.9811" gradientUnits="userSpaceOnUse">
<stop offset="9.43019e-07"/>
<stop offset="1"/>
</linearGradient>
<linearGradient id="paint2_linear_2_43" x1="-0.230647" y1="16.0702" x2="32.7577" y2="48.7254" gradientUnits="userSpaceOnUse">
<stop offset="9.43019e-07" stop-color="#FF4681"/>
<stop offset="0.7392" stop-color="#9B44F6"/>
</linearGradient>
</defs>
</svg>
