<svg width="240" height="29" viewBox="0 0 240 29" fill="none" xmlns="http://www.w3.org/2000/svg">
<path d="M19 23H10L19 14V23Z" fill="url(#paint0_linear_1686_4297)"/>
<path opacity="0.14" d="M19.0001 23L14.3862 18.6897L15.0001 18L19.0001 23Z" fill="black"/>
<path d="M105 9.61157V12.605C104.718 12.5646 104.476 12.5241 104.274 12.5241C103.024 12.5241 102.056 12.8882 101.37 13.6163C100.684 14.3445 100.321 15.3558 100.321 16.6907V23.244H97.1353V9.61157H100.16V11.7151C101.047 10.3397 102.661 9.61157 105 9.61157Z" fill="white"/>
<path d="M94.9574 17.4189H84.5518C84.7535 18.3897 85.1971 19.1583 85.9634 19.7651C86.7297 20.3314 87.6977 20.6146 88.827 20.6146C90.2789 20.6146 91.4888 20.1292 92.4165 19.1583L94.1911 20.9382C93.5861 21.6663 92.7391 22.3136 91.8115 22.6777C90.8839 23.0417 89.8756 23.244 88.7463 23.244C87.2944 23.244 86.0038 22.9608 84.9148 22.354C83.8259 21.7877 82.9385 20.9787 82.3336 19.9269C81.7286 18.8751 81.4463 17.702 81.4463 16.4076C81.4463 15.1131 81.7286 13.94 82.3336 12.9287C82.9385 11.8769 83.7452 11.0679 84.7938 10.5015C85.8424 9.93519 87.012 9.61157 88.3027 9.61157C89.5933 9.61157 90.7629 9.89474 91.7712 10.4611C92.7795 11.0274 93.5861 11.8364 94.1507 12.8882C94.7154 13.94 94.9977 15.1131 94.9977 16.4885C94.9977 16.6907 94.9977 17.0143 94.9574 17.4189ZM85.8021 13.0096C85.1165 13.6163 84.7131 14.3849 84.5518 15.3558H92.0535C91.9325 14.3849 91.5292 13.6163 90.8435 13.0096C90.1579 12.4028 89.3109 12.1196 88.3027 12.1196C87.2944 12.1196 86.4877 12.4028 85.8021 13.0096Z" fill="white"/>
<path d="M81.6076 9.61157L75.7192 23.244H72.654L66.7656 9.61157H69.9921L74.2673 19.6437L78.6634 9.61157H81.6076Z" fill="white"/>
<path d="M67.0482 17.4189H56.6426C56.8443 18.3897 57.2879 19.1583 58.0542 19.7651C58.8205 20.3314 59.7885 20.6146 60.9178 20.6146C62.3697 20.6146 63.5797 20.1292 64.5073 19.1583L66.2819 20.9382C65.6769 21.6663 64.8299 22.3136 63.9023 22.6777C62.9747 23.0417 61.9664 23.244 60.8371 23.244C59.3852 23.244 58.0946 22.9608 57.0056 22.354C55.9167 21.7877 55.0294 20.9787 54.4244 19.9269C53.8194 18.8751 53.5371 17.702 53.5371 16.4076C53.5371 15.1131 53.8194 13.94 54.4244 12.9287C55.0294 11.8769 55.836 11.0679 56.8846 10.5015C57.9332 9.93519 59.1029 9.61157 60.3935 9.61157C61.6841 9.61157 62.8537 9.89474 63.862 10.4611C64.8703 11.0274 65.6769 11.8364 66.2415 12.8882C66.8062 13.94 67.0885 15.1131 67.0885 16.4885C67.0885 16.6907 67.0885 17.0143 67.0482 17.4189ZM57.8526 13.0096C57.167 13.6163 56.7636 14.3849 56.6023 15.3558H64.104C63.983 14.3849 63.5797 13.6163 62.894 13.0096C62.2084 12.4028 61.3614 12.1196 60.3531 12.1196C59.3852 12.1196 58.5382 12.4028 57.8526 13.0096Z" fill="white"/>
<path d="M47.6082 4.59595H50.7137V23.2444H47.6082V4.59595Z" fill="white"/>
<path d="M41.155 9.61157H45.0268L36.5975 18.1066L34.6616 16.1648L41.155 9.61157Z" fill="white"/>
<path d="M34.6619 16.1251L36.5574 14.2239L45.5514 23.2447H41.7199L34.6619 16.1656V16.1251Z" fill="white"/>
<path d="M35.1055 4.59595H32V23.2444H35.1055V4.59595Z" fill="white"/>
<path d="M19 23H0V4L19 23Z" fill="url(#paint1_linear_1686_4297)"/>
<path d="M118.264 6.2C119.752 6.2 121.04 6.448 122.128 6.944C123.232 7.44 124.08 8.144 124.672 9.056C125.264 9.968 125.56 11.048 125.56 12.296C125.56 13.528 125.264 14.608 124.672 15.536C124.08 16.448 123.232 17.152 122.128 17.648C121.04 18.128 119.752 18.368 118.264 18.368H114.88V23H110.992V6.2H118.264ZM118.048 15.2C119.216 15.2 120.104 14.952 120.712 14.456C121.32 13.944 121.624 13.224 121.624 12.296C121.624 11.352 121.32 10.632 120.712 10.136C120.104 9.624 119.216 9.368 118.048 9.368H114.88V15.2H118.048ZM134.192 23.192C132.832 23.192 131.608 22.912 130.52 22.352C129.448 21.776 128.608 20.984 128 19.976C127.392 18.968 127.088 17.824 127.088 16.544C127.088 15.264 127.392 14.12 128 13.112C128.608 12.104 129.448 11.32 130.52 10.76C131.608 10.184 132.832 9.896 134.192 9.896C135.552 9.896 136.768 10.184 137.84 10.76C138.912 11.32 139.752 12.104 140.36 13.112C140.968 14.12 141.272 15.264 141.272 16.544C141.272 17.824 140.968 18.968 140.36 19.976C139.752 20.984 138.912 21.776 137.84 22.352C136.768 22.912 135.552 23.192 134.192 23.192ZM134.192 20.12C135.152 20.12 135.936 19.8 136.544 19.16C137.168 18.504 137.48 17.632 137.48 16.544C137.48 15.456 137.168 14.592 136.544 13.952C135.936 13.296 135.152 12.968 134.192 12.968C133.232 12.968 132.44 13.296 131.816 13.952C131.192 14.592 130.88 15.456 130.88 16.544C130.88 17.632 131.192 18.504 131.816 19.16C132.44 19.8 133.232 20.12 134.192 20.12ZM149.919 23.192C148.559 23.192 147.335 22.912 146.247 22.352C145.175 21.776 144.335 20.984 143.727 19.976C143.119 18.968 142.815 17.824 142.815 16.544C142.815 15.264 143.119 14.12 143.727 13.112C144.335 12.104 145.175 11.32 146.247 10.76C147.335 10.184 148.559 9.896 149.919 9.896C151.279 9.896 152.495 10.184 153.567 10.76C154.639 11.32 155.479 12.104 156.087 13.112C156.695 14.12 156.999 15.264 156.999 16.544C156.999 17.824 156.695 18.968 156.087 19.976C155.479 20.984 154.639 21.776 153.567 22.352C152.495 22.912 151.279 23.192 149.919 23.192ZM149.919 20.12C150.879 20.12 151.663 19.8 152.271 19.16C152.895 18.504 153.207 17.632 153.207 16.544C153.207 15.456 152.895 14.592 152.271 13.952C151.663 13.296 150.879 12.968 149.919 12.968C148.959 12.968 148.167 13.296 147.543 13.952C146.919 14.592 146.607 15.456 146.607 16.544C146.607 17.632 146.919 18.504 147.543 19.16C148.167 19.8 148.959 20.12 149.919 20.12ZM159.501 5.192H163.245V23H159.501V5.192ZM181.053 6.2C182.541 6.2 183.829 6.448 184.917 6.944C186.021 7.44 186.869 8.144 187.461 9.056C188.053 9.968 188.349 11.048 188.349 12.296C188.349 13.528 188.053 14.608 187.461 15.536C186.869 16.448 186.021 17.152 184.917 17.648C183.829 18.128 182.541 18.368 181.053 18.368H177.669V23H173.781V6.2H181.053ZM180.837 15.2C182.005 15.2 182.893 14.952 183.501 14.456C184.109 13.944 184.413 13.224 184.413 12.296C184.413 11.352 184.109 10.632 183.501 10.136C182.893 9.624 182.005 9.368 180.837 9.368H177.669V15.2H180.837ZM195.952 9.896C197.952 9.896 199.488 10.376 200.56 11.336C201.632 12.28 202.168 13.712 202.168 15.632V23H198.664V21.392C197.96 22.592 196.648 23.192 194.728 23.192C193.736 23.192 192.872 23.024 192.136 22.688C191.416 22.352 190.864 21.888 190.48 21.296C190.096 20.704 189.904 20.032 189.904 19.28C189.904 18.08 190.352 17.136 191.248 16.448C192.16 15.76 193.56 15.416 195.448 15.416H198.424C198.424 14.6 198.176 13.976 197.68 13.544C197.184 13.096 196.44 12.872 195.448 12.872C194.76 12.872 194.08 12.984 193.408 13.208C192.752 13.416 192.192 13.704 191.728 14.072L190.384 11.456C191.088 10.96 191.928 10.576 192.904 10.304C193.896 10.032 194.912 9.896 195.952 9.896ZM195.664 20.672C196.304 20.672 196.872 20.528 197.368 20.24C197.864 19.936 198.216 19.496 198.424 18.92V17.6H195.856C194.32 17.6 193.552 18.104 193.552 19.112C193.552 19.592 193.736 19.976 194.104 20.264C194.488 20.536 195.008 20.672 195.664 20.672ZM209.132 11.792C209.58 11.168 210.18 10.696 210.932 10.376C211.7 10.056 212.58 9.896 213.572 9.896V13.352C213.156 13.32 212.876 13.304 212.732 13.304C211.66 13.304 210.82 13.608 210.212 14.216C209.604 14.808 209.3 15.704 209.3 16.904V23H205.556V10.088H209.132V11.792ZM224.572 22.376C224.204 22.648 223.748 22.856 223.204 23C222.676 23.128 222.116 23.192 221.524 23.192C219.988 23.192 218.796 22.8 217.948 22.016C217.116 21.232 216.7 20.08 216.7 18.56V13.256H214.708V10.376H216.7V7.232H220.444V10.376H223.66V13.256H220.444V18.512C220.444 19.056 220.58 19.48 220.852 19.784C221.14 20.072 221.54 20.216 222.052 20.216C222.644 20.216 223.148 20.056 223.564 19.736L224.572 22.376ZM239.255 10.088L233.423 23.792C232.831 25.28 232.095 26.328 231.215 26.936C230.351 27.544 229.303 27.848 228.071 27.848C227.399 27.848 226.735 27.744 226.079 27.536C225.423 27.328 224.887 27.04 224.471 26.672L225.839 24.008C226.127 24.264 226.455 24.464 226.823 24.608C227.207 24.752 227.583 24.824 227.951 24.824C228.463 24.824 228.879 24.696 229.199 24.44C229.519 24.2 229.807 23.792 230.063 23.216L230.111 23.096L224.519 10.088H228.383L232.007 18.848L235.655 10.088H239.255Z" fill="url(#paint2_linear_1686_4297)"/>
<defs>
<linearGradient id="paint0_linear_1686_4297" x1="14.5" y1="13.9583" x2="14.5" y2="23.0181" gradientUnits="userSpaceOnUse">
<stop offset="2.71717e-07" stop-color="#FF4681"/>
<stop offset="1" stop-color="#9B44F6"/>
</linearGradient>
<linearGradient id="paint1_linear_1686_4297" x1="-4.52639" y1="8.97361" x2="14.5037" y2="28.0037" gradientUnits="userSpaceOnUse">
<stop offset="9.43019e-07" stop-color="#FF4681"/>
<stop offset="0.7392" stop-color="#9B44F6"/>
</linearGradient>
<linearGradient id="paint2_linear_1686_4297" x1="77.7917" y1="7.5913" x2="90.051" y2="62.9692" gradientUnits="userSpaceOnUse">
<stop offset="9.43019e-07" stop-color="#FF4681"/>
<stop offset="0.7392" stop-color="#9B44F6"/>
</linearGradient>
</defs>
</svg>
